<svg xmlns="http://www.w3.org/2000/svg" xmlns:xlink="http://www.w3.org/1999/xlink" width="300" viewBox="0 0 375 374.999991" height="300" preserveAspectRatio="xMidYMid meet"><defs><clipPath id="a10771ab76"><path d="M 77.875 83.34375 L 296.875 83.34375 L 296.875 302.34375 L 77.875 302.34375 Z M 77.875 83.34375 " clip-rule="nonzero"></path></clipPath><clipPath id="c65ff90ead"><path d="M 200 93 L 252 93 L 252 153 L 200 153 Z M 200 93 " clip-rule="nonzero"></path></clipPath><clipPath id="d4233cd2dc"><path d="M 194.226562 140.640625 L 229.546875 87.566406 L 257.390625 106.097656 L 222.066406 159.167969 Z M 194.226562 140.640625 " clip-rule="nonzero"></path></clipPath><clipPath id="067858e464"><path d="M 221.269531 100.007812 C 225.835938 93.144531 235.769531 91.730469 243.457031 96.847656 C 251.144531 101.964844 253.675781 111.675781 249.109375 118.535156 L 230.335938 146.746094 C 225.769531 153.609375 215.835938 155.023438 208.148438 149.90625 C 200.457031 144.789062 197.925781 135.078125 202.492188 128.21875 Z M 221.269531 100.007812 " clip-rule="nonzero"></path></clipPath></defs><g clip-path="url(#a10771ab76)"><path fill="#7ed957" d="M 214.046875 116.722656 C 207.722656 127.429688 207.46875 140.101562 212.101562 150.570312 C 223.546875 149.113281 234.269531 142.535156 240.363281 131.808594 C 246.457031 121.101562 246.941406 108.433594 242.308594 97.960938 C 230.863281 99.417969 220.140625 106 214.046875 116.722656 Z M 248.402344 140.101562 C 237.675781 146.425781 231.097656 156.917969 229.636719 168.363281 C 240.363281 172.996094 252.78125 172.507812 263.507812 166.417969 C 274.230469 160.089844 280.789062 149.597656 282.269531 138.152344 C 271.777344 133.519531 259.359375 134.007812 248.402344 140.101562 Z M 266.679688 177.859375 C 254.242188 177.859375 243.28125 183.953125 236.21875 192.964844 C 243.050781 202.210938 254.242188 208.070312 266.679688 208.070312 C 279.097656 208.070312 290.054688 201.976562 297.121094 192.964844 C 290.308594 183.699219 279.097656 177.859375 266.679688 177.859375 Z M 263.738281 219.515625 C 253.035156 213.1875 240.363281 212.9375 229.890625 217.566406 C 231.351562 229.011719 237.929688 239.738281 248.65625 245.832031 C 259.359375 252.15625 272.03125 252.410156 282.503906 247.777344 C 281.042969 236.332031 274.464844 225.605469 263.738281 219.515625 Z M 240.363281 253.871094 C 234.039062 243.144531 223.546875 236.566406 212.101562 235.105469 C 207.46875 245.832031 207.957031 258.25 214.046875 268.972656 C 220.375 279.699219 230.863281 286.277344 242.308594 287.738281 C 246.941406 277.265625 246.457031 264.828125 240.363281 253.871094 Z M 202.601562 272.125 C 202.601562 259.707031 196.511719 248.75 187.5 241.683594 C 178.234375 248.515625 172.394531 259.707031 172.394531 272.125 C 172.394531 284.566406 178.488281 295.523438 187.5 302.589844 C 196.742188 295.777344 202.601562 284.566406 202.601562 272.125 Z M 160.949219 269.207031 C 167.273438 258.5 167.527344 245.832031 162.894531 235.359375 C 151.449219 236.820312 140.726562 243.398438 134.632812 254.101562 C 128.308594 264.828125 128.054688 277.5 132.6875 287.972656 C 144.132812 286.511719 154.855469 279.933594 160.949219 269.207031 Z M 126.59375 245.832031 C 137.320312 239.503906 143.898438 229.011719 145.359375 217.566406 C 134.632812 212.9375 122.214844 213.421875 111.488281 219.515625 C 100.765625 225.839844 94.1875 236.332031 92.726562 247.777344 C 103.21875 252.410156 115.636719 251.921875 126.59375 245.832031 Z M 108.335938 208.070312 C 120.753906 208.070312 131.714844 201.976562 138.777344 192.964844 C 131.945312 183.699219 120.753906 177.859375 108.335938 177.859375 C 95.898438 177.859375 84.6875 183.699219 77.875 192.964844 C 84.6875 202.210938 95.898438 208.070312 108.335938 208.070312 Z M 111.257812 166.417969 C 121.960938 172.742188 134.632812 172.996094 145.105469 168.363281 C 143.644531 156.917969 137.066406 146.191406 126.359375 140.101562 C 115.636719 134.007812 102.964844 133.519531 92.492188 138.152344 C 93.953125 149.597656 100.53125 160.324219 111.257812 166.417969 Z M 134.632812 132.0625 C 140.960938 142.785156 151.449219 149.367188 162.894531 150.824219 C 167.527344 140.101562 167.042969 127.683594 160.949219 116.957031 C 154.625 106.230469 144.132812 99.671875 132.6875 98.195312 C 128.054688 108.683594 128.539062 121.101562 134.632812 132.0625 Z M 187.5 83.34375 C 196.742188 90.15625 202.601562 101.367188 202.601562 113.785156 C 202.601562 126.222656 196.742188 137.179688 187.5 144.246094 C 178.234375 137.414062 172.394531 126.222656 172.394531 113.785156 C 172.394531 101.367188 178.234375 90.15625 187.5 83.34375 " fill-opacity="1" fill-rule="nonzero"></path></g><g clip-path="url(#c65ff90ead)"><g clip-path="url(#d4233cd2dc)"><g clip-path="url(#067858e464)"><path fill="#ffffff" d="M 194.226562 140.640625 L 229.546875 87.566406 L 257.390625 106.097656 L 222.066406 159.167969 Z M 194.226562 140.640625 " fill-opacity="1" fill-rule="nonzero"></path></g></g></g></svg>